<?xml version="1.0" standalone="yes"?>

<svg version="1.1" viewBox="0.0 0.0 960.0 720.0" fill="none" stroke="none" stroke-linecap="square" stroke-miterlimit="10" xmlns="http://www.w3.org/2000/svg" xmlns:xlink="http://www.w3.org/1999/xlink"><clipPath id="p.0"><path d="m0 0l960.0 0l0 720.0l-960.0 0l0 -720.0z" clip-rule="nonzero"></path></clipPath><g clip-path="url(#p.0)"><path fill="#000000" fill-opacity="0.0" d="m0 0l960.0 0l0 720.0l-960.0 0z" fill-rule="nonzero"></path><path fill="#000000" fill-opacity="0.0" d="m53.238846 50.569057l103.30708 0l0 45.38583l-103.30708 0z" fill-rule="nonzero"></path><path fill="#000000" d="m102.36114 72.64843l-6.109375 0l0 -1.875q0 -1.3125 -0.234375 -1.671875q-0.234375 -0.359375 -0.78125 -0.359375q-0.59375 0 -0.90625 0.484375q-0.296875 0.484375 -0.296875 1.46875q0 1.265625 0.34375 1.90625q0.328125 0.640625 1.859375 1.546875q4.390625 2.609375 5.53125 4.28125q1.140625 1.671875 1.140625 5.390625q0 2.703125 -0.640625 3.984375q-0.625 1.28125 -2.4375 2.15625q-1.8125 0.859375 -4.21875 0.859375q-2.640625 0 -4.515625 -1.0q-1.859375 -1.0 -2.4375 -2.546875q-0.578125 -1.546875 -0.578125 -4.390625l0 -1.65625l6.109375 0l0 3.078125q0 1.421875 0.25 1.828125q0.265625 0.40625 0.921875 0.40625q0.65625 0 0.96875 -0.515625q0.328125 -0.515625 0.328125 -1.53125q0 -2.234375 -0.609375 -2.921875q-0.625 -0.6875 -3.078125 -2.296875q-2.453125 -1.625 -3.25 -2.359375q-0.796875 -0.734375 -1.328125 -2.03125q-0.515625 -1.296875 -0.515625 -3.3125q0 -2.90625 0.734375 -4.25q0.75 -1.34375 2.40625 -2.09375q1.65625 -0.765625 4.0 -0.765625q2.5625 0 4.359375 0.828125q1.8125 0.828125 2.390625 2.09375q0.59375 1.25 0.59375 4.265625l0 1.0zm9.1875 -7.65625l0 25.296875l-6.578125 0l0 -25.296875l6.578125 0zm15.96875 0l-2.296875 11.1875l3.4687424 14.109375l-6.0937424 0q-1.09375 -3.78125 -2.0 -9.203125q-0.25 2.390625 -0.6875 5.078125l-0.625 4.125l-6.40625 0l2.375 -14.109375l-2.375 -11.1875l6.359375 0q0.171875 1.046875 0.6875 3.484375q0.40625 1.859375 0.671875 3.40625l1.40625 -6.890625l5.515625 0z" fill-rule="nonzero"></path><path fill="#000000" d="m75.233635 92.71916l0 0c-1.1132889 0 -2.0157852 -0.90250397 -2.0157852 -2.0157928l0 -24.472359c0 -0.5346222 0.21237183 -1.0473404 0.5904083 -1.4253769c0.3780365 -0.3780365 0.8907547 -0.5904083 1.4253769 -0.5904083l8.062912 0c1.1132889 0 2.0157852 0.90249634 2.0157852 2.0157852l0 24.472359c0 1.1132889 -0.90249634 2.0157928 -2.0157852 2.0157928z" fill-rule="nonzero"></path><path stroke="#000000" stroke-width="1.0" stroke-linejoin="round" stroke-linecap="butt" d="m75.233635 92.71916l0 0c-1.1132889 0 -2.0157852 -0.90250397 -2.0157852 -2.0157928l0 -24.472359c0 -0.5346222 0.21237183 -1.0473404 0.5904083 -1.4253769c0.3780365 -0.3780365 0.8907547 -0.5904083 1.4253769 -0.5904083l8.062912 0c1.1132889 0 2.0157852 0.90249634 2.0157852 2.0157852l0 24.472359c0 1.1132889 -0.90249634 2.0157928 -2.0157852 2.0157928z" fill-rule="nonzero"></path><path fill="#000000" d="m132.47774 92.71916l0 0c-1.1132965 0 -2.0157928 -0.90250397 -2.0157928 -2.0157928l0 -24.472359c0 -0.5346222 0.21237183 -1.0473404 0.5904083 -1.4253769c0.3780365 -0.3780365 0.8907623 -0.5904083 1.4253845 -0.5904083l8.062912 0c1.1132812 0 2.0157776 0.90249634 2.0157776 2.0157852l0 24.472359c0 1.1132889 -0.90249634 2.0157928 -2.0157776 2.0157928z" fill-rule="nonzero"></path><path stroke="#000000" stroke-width="1.0" stroke-linejoin="round" stroke-linecap="butt" d="m132.47774 92.71916l0 0c-1.1132965 0 -2.0157928 -0.90250397 -2.0157928 -2.0157928l0 -24.472359c0 -0.5346222 0.21237183 -1.0473404 0.5904083 -1.4253769c0.3780365 -0.3780365 0.8907623 -0.5904083 1.4253845 -0.5904083l8.062912 0c1.1132812 0 2.0157776 0.90249634 2.0157776 2.0157852l0 24.472359c0 1.1132889 -0.90249634 2.0157928 -2.0157776 2.0157928z" fill-rule="nonzero"></path><path fill="#000000" fill-opacity="0.0" d="m57.068737 95.329575l97.25984 0l0 60.97638l-97.25984 0z" fill-rule="nonzero"></path><path fill="#000000" d="m73.741646 113.555885l4.21875 0q4.21875 0 5.703125 0.328125q1.5 0.3125 2.4375 1.65625q0.953125 1.34375 0.953125 4.265625q0 2.6875 -0.671875 3.609375q-0.65625 0.90625 -2.609375 1.09375q1.765625 0.4375 2.375 1.1875q0.609375 0.734375 0.75 1.34375q0.15625 0.609375 0.15625 3.3906326l0 6.046875l-5.53125 0l0 -7.625q0 -1.8281326 -0.296875 -2.2656326q-0.28125 -0.453125 -1.515625 -0.453125l0 10.343758l-5.96875 0l0 -22.921883zm5.96875 3.921875l0 5.09375q1.0 0 1.40625 -0.265625q0.40625 -0.28125 0.40625 -1.796875l0 -1.265625q0 -1.09375 -0.390625 -1.421875q-0.390625 -0.34375 -1.421875 -0.34375zm15.79538 -3.921875l0 22.921883l-5.96875 0l0 -22.921883l5.96875 0zm15.79277 0l0 22.921883l-5.21875 0l-3.109375 -10.421883l0 10.421883l-4.984375 0l0 -22.921883l4.984375 0l3.34375 10.3125l0 -10.3125l4.984375 0zm16.256302 8.4375l-5.96875 0l0 -2.078125q0 -1.96875 -0.171875 -2.46875q-0.171875 -0.5 -0.796875 -0.5q-0.5625 0 -0.765625 0.4375q-0.1875 0.421875 -0.1875 2.171875l0 11.000008q0 1.546875 0.1875 2.03125q0.203125 0.484375 0.796875 0.484375q0.65625 0 0.890625 -0.546875q0.234375 -0.546875 0.234375 -2.15625l0 -2.7187576l-1.203125 0l0 -3.484375l6.984375 0l0 12.312508l-3.765625 0l-0.546875 -1.640625q-0.609375 1.0625 -1.546875 1.59375q-0.921875 0.53125 -2.171875 0.53125q-1.5 0 -2.8125 -0.734375q-1.3125 -0.734375 -2.0 -1.796875q-0.671875 -1.078125 -0.84375 -2.265625q-0.171875 -1.1875 -0.171875 -3.546875l0 -6.8125076q0 -3.28125 0.359375 -4.765625q0.359375 -1.484375 2.03125 -2.71875q1.671875 -1.25 4.34375 -1.25q2.609375 0 4.34375 1.078125q1.734375 1.078125 2.25 2.5625q0.53125 1.46875 0.53125 4.28125l0 1.0zm15.120827 -1.5l-5.546875 0l0 -1.703125q0 -1.1875 -0.21875 -1.515625q-0.203125 -0.328125 -0.703125 -0.328125q-0.53125 0 -0.8125 0.4375q-0.28125 0.4375 -0.28125 1.34375q0 1.140625 0.3125 1.71875q0.296875 0.578125 1.6875 1.40625q3.984375 2.359375 5.015625 3.875q1.03125 1.515625 1.03125 4.8906326q0 2.453125 -0.578125 3.609375q-0.5625 1.15625 -2.203125 1.953125q-1.640625 0.78125 -3.828125 0.78125q-2.390625 0 -4.09375 -0.90625q-1.6875 -0.90625 -2.21875 -2.3125q-0.515625 -1.40625 -0.515625 -3.984375l0 -1.5l5.546875 0l0 2.796875q0 1.28125 0.21875 1.65625q0.234375 0.359375 0.84375 0.359375q0.59375 0 0.875 -0.453125q0.296875 -0.46875 0.296875 -1.390625q0 -2.03125 -0.5625 -2.65625q-0.5625 -0.6250076 -2.78125 -2.0781326q-2.21875 -1.46875 -2.953125 -2.125q-0.71875 -0.671875 -1.203125 -1.84375q-0.46875 -1.1875 -0.46875 -3.015625q0 -2.625 0.671875 -3.84375q0.6875 -1.21875 2.1875 -1.90625q1.5 -0.6875 3.625 -0.6875q2.3125 0 3.953125 0.75q1.640625 0.75 2.171875 1.890625q0.53125 1.140625 0.53125 3.875l0 0.90625z" fill-rule="nonzero"></path><path fill="#000000" fill-opacity="0.0" d="m47.046604 83.8499l122.14174 0l0 39.90551l-122.14174 0z" fill-rule="nonzero"></path><path fill="#000000" d="m79.86845 95.190155l0 2.0625q-0.8125 0 -1.046875 0.078125q-0.234375 0.0625 -0.359375 0.3125q-0.109375 0.25 -0.109375 1.40625l0 8.09375q0 1.078125 0.09375 1.359375q0.09375 0.265625 0.328125 0.359375q0.234375 0.078125 1.09375 0.078125l0 2.0625l-1.234375 0q-1.71875 0 -2.53125 -0.3125q-0.796875 -0.328125 -1.0625 -0.9375q-0.25 -0.609375 -0.25 -2.625l0 -8.0625q0 -2.0 0.25 -2.625q0.25 -0.625 1.078125 -0.9375q0.828125 -0.3125 2.515625 -0.3125l1.234375 0zm5.0195312 2.859375l-0.15625 1.6875q0.859375 -1.828125 2.484375 -1.921875l0 4.546875q-1.078125 0 -1.59375 0.296875q-0.5 0.296875 -0.625 0.828125q-0.109375 0.515625 -0.109375 2.390625l0 5.125l-3.953125 0l0 -12.953125l3.953125 0zm12.236328 0l0 12.953125l-4.015625 0l0.078125 -1.078125q-0.421875 0.65625 -1.015625 0.984375q-0.59375 0.328125 -1.375 0.328125q-0.890625 0 -1.484375 -0.3125q-0.578125 -0.3125 -0.859375 -0.828125q-0.28125 -0.515625 -0.359375 -1.078125q-0.0625 -0.5625 -0.0625 -2.234375l0 -8.734375l3.953125 0l0 8.8125q0 1.515625 0.09375 1.796875q0.09375 0.28125 0.5 0.28125q0.4375 0 0.515625 -0.28125q0.09375 -0.296875 0.09375 -1.890625l0 -8.71875l3.9375 0zm5.3710938 -2.859375l0 3.734375q0.484375 -0.5625 1.078125 -0.828125q0.609375 -0.28125 1.3125 -0.28125q0.8125 0 1.40625 0.25q0.59375 0.25 0.90625 0.71875q0.3125 0.453125 0.375 0.890625q0.0625 0.4375 0.0625 1.875l0 5.84375q0 1.421875 -0.1875 2.125q-0.1875 0.6875 -0.890625 1.203125q-0.703125 0.515625 -1.671875 0.515625q-0.703125 0 -1.3125 -0.296875q-0.59375 -0.3125 -1.078125 -0.921875l-0.265625 0.984375l-3.6875 0l0 -15.8125l3.953125 0zm1.1875 6.53125q0 -1.0 -0.125 -1.3125q-0.125 -0.3125 -0.5 -0.3125q-0.359375 0 -0.46875 0.28125q-0.09375 0.265625 -0.09375 1.34375l0 5.59375q0 1.046875 0.109375 1.34375q0.125 0.28125 0.484375 0.28125q0.375 0 0.484375 -0.296875q0.109375 -0.3125 0.109375 -1.453125l0 -5.46875zm9.203125 -6.53125l0 3.734375q0.484375 -0.5625 1.078125 -0.828125q0.609375 -0.28125 1.3125 -0.28125q0.8125 0 1.40625 0.25q0.59375 0.25 0.90625 0.71875q0.3125 0.453125 0.375 0.890625q0.0625 0.4375 0.0625 1.875l0 5.84375q0 1.421875 -0.1875 2.125q-0.1875 0.6875 -0.890625 1.203125q-0.703125 0.515625 -1.671875 0.515625q-0.703125 0 -1.3125 -0.296875q-0.59375 -0.3125 -1.078125 -0.921875l-0.265625 0.984375l-3.6875 0l0 -15.8125l3.953125 0zm1.1875 6.53125q0 -1.0 -0.125 -1.3125q-0.125 -0.3125 -0.5 -0.3125q-0.359375 0 -0.46875 0.28125q-0.09375 0.265625 -0.09375 1.34375l0 5.59375q0 1.046875 0.109375 1.34375q0.125 0.28125 0.484375 0.28125q0.375 0 0.484375 -0.296875q0.109375 -0.3125 0.109375 -1.453125l0 -5.46875zm14.187492 3.03125l-5.1093674 0l0 2.796875q0 0.890625 0.125 1.140625q0.125 0.25 0.484375 0.25q0.453125 0 0.609375 -0.328125q0.15625 -0.34375 0.15625 -1.3125l0 -1.703125l3.7343674 0l0 0.953125q0 1.203125 -0.15625 1.84375q-0.14061737 0.640625 -0.7031174 1.375q-0.5625 0.734375 -1.421875 1.109375q-0.84375 0.359375 -2.140625 0.359375q-1.25 0 -2.203125 -0.359375q-0.953125 -0.359375 -1.484375 -0.984375q-0.53125 -0.640625 -0.734375 -1.390625q-0.203125 -0.765625 -0.203125 -2.203125l0 -3.78125q0 -1.703125 0.453125 -2.6875q0.453125 -0.984375 1.5 -1.5q1.046875 -0.515625 2.40625 -0.515625q1.65625 0 2.734375 0.625q1.078125 0.625 1.515625 1.671875q0.43749237 1.03125 0.43749237 2.921875l0 1.71875zm-3.9531174 -2.109375l0 -0.953125q0 -1.0 -0.109375 -1.296875q-0.109375 -0.296875 -0.4375 -0.296875q-0.40625 0 -0.515625 0.25q-0.09375 0.25 -0.09375 1.34375l0 0.953125l1.15625 0zm9.193352 -4.59375l-0.15625 1.6875q0.859375 -1.828125 2.484375 -1.921875l0 4.546875q-1.078125 0 -1.59375 0.296875q-0.5 0.296875 -0.625 0.828125q-0.109375 0.515625 -0.109375 2.390625l0 5.125l-3.953125 0l0 -12.953125l3.953125 0zm2.8613281 -2.859375l1.234375 0q1.671875 0 2.5 0.3125q0.84375 0.3125 1.09375 0.9375q0.25 0.625 0.25 2.625l0 8.0625q0 2.015625 -0.25 2.625q-0.25 0.609375 -1.0625 0.9375q-0.8125 0.3125 -2.53125 0.3125l-1.234375 0l0 -2.0625q0.859375 0 1.09375 -0.078125q0.234375 -0.09375 0.328125 -0.359375q0.09375 -0.28125 0.09375 -1.359375l0 -8.09375q0 -1.15625 -0.125 -1.40625q-0.109375 -0.25 -0.359375 -0.3125q-0.234375 -0.078125 -1.03125 -0.078125l0 -2.0625z" fill-rule="nonzero"></path><path fill="#000000" d="m132.47774 166.77165l0 0c-1.1132965 0 -2.0157928 -0.90249634 -2.0157928 -2.0157928l0 -24.472351c0 -0.5346222 0.21237183 -1.047348 0.5904083 -1.4253845c0.3780365 -0.3780365 0.8907623 -0.5904083 1.4253845 -0.5904083l8.062912 0c1.1132812 0 2.0157776 0.90249634 2.0157776 2.0157928l0 24.472351c0 1.1132965 -0.90249634 2.0157928 -2.0157776 2.0157928z" fill-rule="nonzero"></path><path stroke="#000000" stroke-width="1.0" stroke-linejoin="round" stroke-linecap="butt" d="m132.47774 166.77165l0 0c-1.1132965 0 -2.0157928 -0.90249634 -2.0157928 -2.0157928l0 -24.472351c0 -0.5346222 0.21237183 -1.047348 0.5904083 -1.4253845c0.3780365 -0.3780365 0.8907623 -0.5904083 1.4253845 -0.5904083l8.062912 0c1.1132812 0 2.0157776 0.90249634 2.0157776 2.0157928l0 24.472351c0 1.1132965 -0.90249634 2.0157928 -2.0157776 2.0157928z" fill-rule="nonzero"></path><path fill="#000000" d="m117.03154 166.77165l0 0c-1.1132965 0 -2.0157928 -0.90249634 -2.0157928 -2.0157928l0 -24.472351c0 -0.5346222 0.21237946 -1.047348 0.5904083 -1.4253845c0.3780365 -0.3780365 0.8907623 -0.5904083 1.4253845 -0.5904083l8.062904 0c1.1132965 0 2.0157928 0.90249634 2.0157928 2.0157928l0 24.472351c0 1.1132965 -0.90249634 2.0157928 -2.0157928 2.0157928z" fill-rule="nonzero"></path><path stroke="#000000" stroke-width="1.0" stroke-linejoin="round" stroke-linecap="butt" d="m117.03154 166.77165l0 0c-1.1132965 0 -2.0157928 -0.90249634 -2.0157928 -2.0157928l0 -24.472351c0 -0.5346222 0.21237946 -1.047348 0.5904083 -1.4253845c0.3780365 -0.3780365 0.8907623 -0.5904083 1.4253845 -0.5904083l8.062904 0c1.1132965 0 2.0157928 0.90249634 2.0157928 2.0157928l0 24.472351c0 1.1132965 -0.90249634 2.0157928 -2.0157928 2.0157928z" fill-rule="nonzero"></path><path fill="#000000" d="m91.233635 166.77165l0 0c-1.1132889 0 -2.0157852 -0.90249634 -2.0157852 -2.0157928l0 -24.472351c0 -0.5346222 0.21237183 -1.047348 0.5904083 -1.4253845c0.3780365 -0.3780365 0.8907547 -0.5904083 1.4253769 -0.5904083l8.062912 0c1.1132889 0 2.0157852 0.90249634 2.0157852 2.0157928l0 24.472351c0 1.1132965 -0.90249634 2.0157928 -2.0157852 2.0157928z" fill-rule="nonzero"></path><path stroke="#000000" stroke-width="1.0" stroke-linejoin="round" stroke-linecap="butt" d="m91.233635 166.77165l0 0c-1.1132889 0 -2.0157852 -0.90249634 -2.0157852 -2.0157928l0 -24.472351c0 -0.5346222 0.21237183 -1.047348 0.5904083 -1.4253845c0.3780365 -0.3780365 0.8907547 -0.5904083 1.4253769 -0.5904083l8.062912 0c1.1132889 0 2.0157852 0.90249634 2.0157852 2.0157928l0 24.472351c0 1.1132965 -0.90249634 2.0157928 -2.0157852 2.0157928z" fill-rule="nonzero"></path><path fill="#000000" d="m75.233635 166.77165l0 0c-1.1132889 0 -2.0157852 -0.90249634 -2.0157852 -2.0157928l0 -24.472351c0 -0.5346222 0.21237183 -1.047348 0.5904083 -1.4253845c0.3780365 -0.3780365 0.8907547 -0.5904083 1.4253769 -0.5904083l8.062912 0c1.1132889 0 2.0157852 0.90249634 2.0157852 2.0157928l0 24.472351c0 1.1132965 -0.90249634 2.0157928 -2.0157852 2.0157928z" fill-rule="nonzero"></path><path stroke="#000000" stroke-width="1.0" stroke-linejoin="round" stroke-linecap="butt" d="m75.233635 166.77165l0 0c-1.1132889 0 -2.0157852 -0.90249634 -2.0157852 -2.0157928l0 -24.472351c0 -0.5346222 0.21237183 -1.047348 0.5904083 -1.4253845c0.3780365 -0.3780365 0.8907547 -0.5904083 1.4253769 -0.5904083l8.062912 0c1.1132889 0 2.0157852 0.90249634 2.0157852 2.0157928l0 24.472351c0 1.1132965 -0.90249634 2.0157928 -2.0157852 2.0157928z" fill-rule="nonzero"></path></g></svg>

